<?xml version="1.0" encoding="UTF-8" standalone="no"?>
<!-- Created with Inkscape (http://www.inkscape.org/) -->

<svg
   width="100.02638mm"
   height="89.810104mm"
   viewBox="0 0 100.02638 89.810104"
   version="1.1"
   id="svg1"
   xml:space="preserve"
   xmlns:inkscape="http://www.inkscape.org/namespaces/inkscape"
   xmlns:sodipodi="http://sodipodi.sourceforge.net/DTD/sodipodi-0.dtd"
   xmlns:xlink="http://www.w3.org/1999/xlink"
   xmlns="http://www.w3.org/2000/svg"
   xmlns:svg="http://www.w3.org/2000/svg"><sodipodi:namedview
     id="namedview1"
     pagecolor="#ffffff"
     bordercolor="#666666"
     borderopacity="1.0"
     inkscape:showpageshadow="2"
     inkscape:pageopacity="0.0"
     inkscape:pagecheckerboard="0"
     inkscape:deskcolor="#d1d1d1"
     inkscape:document-units="mm"
     showguides="true" /><defs
     id="defs1"><linearGradient
       id="linearGradient4"
       inkscape:collect="always"><stop
         style="stop-color:#ff5bd2;stop-opacity:1;"
         offset="0.18364164"
         id="stop4" /><stop
         style="stop-color:#158aff;stop-opacity:1;"
         offset="0.91560692"
         id="stop5" /></linearGradient><linearGradient
       inkscape:collect="always"
       xlink:href="#linearGradient4"
       id="linearGradient5"
       x1="165.02437"
       y1="67.283615"
       x2="183.12076"
       y2="67.283615"
       gradientUnits="userSpaceOnUse"
       gradientTransform="translate(-1.0111968,0.26952441)" /></defs><g
     inkscape:label="Vrstva 1"
     inkscape:groupmode="layer"
     id="layer1"
     transform="translate(-11.8934,-13.590438)"><g
       id="g1"
       transform="rotate(-22.429103,138.67589,121.454)"><g
         id="g5"
         transform="matrix(2.7286463,0,0,2.7286463,-283.87333,-298.34269)"><path
           style="fill:#e6e6e6;fill-opacity:1;stroke:none;stroke-width:0.629736"
           d="m 125.27086,108.97274 c 2.50522,-0.183 4.72896,2.78567 4.96672,4.98307 0.24756,2.28789 -1.35442,5.79755 -3.966,5.9505 -2.62193,0.15355 -4.7059,-3.15304 -4.85003,-5.45686 -0.13401,-2.142 1.41455,-5.29886 3.84931,-5.47671 z"
           id="path4003"
           inkscape:connector-curvature="0"
           sodipodi:nodetypes="aaaaa" /><path
           sodipodi:nodetypes="aaaaa"
           inkscape:connector-curvature="0"
           id="path4005"
           d="m 137.99099,104.18486 c 2.82115,0.60403 3.95156,4.32754 3.36511,6.66407 -0.61061,2.43273 -3.49633,5.63487 -6.47648,4.90548 -2.85621,-0.69907 -3.54538,-4.63986 -2.90726,-6.93225 0.62372,-2.24064 3.20583,-5.23953 6.01863,-4.6373 z"
           style="fill:#e6e6e6;fill-opacity:1;stroke:none;stroke-width:0.662619" /><path
           style="fill:#e6e6e6;fill-opacity:1;stroke:none;stroke-width:0.680678"
           d="m 150.52668,109.5955 c 2.94365,1.13254 2.72156,4.81635 1.45411,6.81382 -1.25939,1.98481 -4.93089,4.45956 -7.87272,3.35958 -3.13107,-1.17075 -2.78625,-5.13738 -1.34678,-7.21229 1.29458,-1.86609 4.96556,-4.03831 7.76539,-2.96111 z"
           id="path4007"
           inkscape:connector-curvature="0"
           sodipodi:nodetypes="aaaaa" /><path
           sodipodi:nodetypes="aaasa"
           inkscape:connector-curvature="0"
           id="path4009"
           d="m 155.97848,121.89833 c 1.44252,1.93488 -0.52802,5.22365 -2.71191,6.51633 -1.98721,1.17624 -5.86566,1.5408 -7.18552,-0.21563 -1.49687,-1.992 0.68181,-5.4443 2.94983,-6.67467 2.03976,-1.10655 5.67682,-1.33056 6.9476,0.37397 z"
           style="fill:#e6e6e6;fill-opacity:1;stroke:none;stroke-width:0.629736" /><path
           style="fill:#e6e6e6;fill-opacity:1;stroke:none;stroke-width:0.0661364px;stroke-linecap:butt;stroke-linejoin:miter;stroke-opacity:1"
           d="m 138.71538,118.34967 c 2.10043,0.94056 3.95883,2.63754 5.13404,4.61627 1.12575,1.89544 1.14362,4.4141 1.5298,6.43425 0.38618,2.02015 1.20447,3.79662 0.82379,5.6672 -0.31352,1.5406 -1.16908,3.11764 -2.44868,4.03106 -1.2557,0.89635 -2.98661,1.13991 -4.52185,0.98738 -1.01379,-0.10072 -1.91638,-0.71853 -2.79931,-1.2268 -1.60187,-0.92214 -2.77141,-2.55749 -4.47516,-3.27411 -1.89244,-0.79598 -4.1038,-0.43841 -6.07577,-1.00959 -0.90797,-0.263 -1.89377,-0.48874 -2.61289,-1.10229 -1.0906,-0.93052 -2.02361,-2.23862 -2.27472,-3.65008 -0.24946,-1.4022 0.14718,-2.95617 0.87047,-4.18306 0.98025,-1.66276 2.44927,-2.52683 4.38912,-3.7771 1.93985,-1.25028 4.54966,-3.52926 7.27463,-4.08433 1.7043,-0.34716 3.59912,-0.13963 5.18653,0.5712 z"
           id="path1"
           sodipodi:nodetypes="aazaaaaaaaaazaa" /><text
           xml:space="preserve"
           style="font-style:normal;font-variant:normal;font-weight:bold;font-stretch:normal;font-size:8.36034px;line-height:1.25;font-family:'Segoe Script';-inkscape-font-specification:'Segoe Script, Bold';font-variant-ligatures:normal;font-variant-caps:normal;font-variant-numeric:normal;font-variant-east-asian:normal;letter-spacing:1.04505px;word-spacing:0px;fill:url(#linearGradient5);stroke-width:0.209009"
           x="164.01317"
           y="70.545387"
           id="text2"
           transform="rotate(22.429103)"><tspan
             sodipodi:role="line"
             id="tspan2"
             style="font-style:normal;font-variant:normal;font-weight:bold;font-stretch:normal;font-size:8.36034px;font-family:'Segoe Script';-inkscape-font-specification:'Segoe Script, Bold';font-variant-ligatures:normal;font-variant-caps:normal;font-variant-numeric:normal;font-variant-east-asian:normal;fill:url(#linearGradient5);stroke-width:0.209009"
             x="164.01317"
             y="70.545387">XXL</tspan></text></g></g></g></svg>
